<svg xmlns="http://www.w3.org/2000/svg" viewBox="0 0 64 64" width="64" height="64">
  <circle cx="32" cy="32" r="32" fill="#555"/>
  <path d="M32 12c-11 0-20 9-20 20 0 8.8 5.7 16.2 13.6 18.8 1 .2 1.4-.4 1.4-1v-3.5c-5.5 1.2-6.6-2.7-6.6-2.7-.9-2.3-2.2-2.9-2.2-2.9-1.8-1.2.1-1.1.1-1.1 2 .2 3 2.1 3 2.1 1.8 3 4.7 2.1 5.8 1.6.2-1.3.7-2.1 1.2-2.6-4.4-.5-9-2.2-9-9.8 0-2.2.8-4 2.1-5.5-.2-.5-.9-2.5.2-5.2 0 0 1.6-.5 5.3 2a18.2 18.2 0 019.6 0c3.7-2.5 5.3-2 5.3-2 1.1 2.7.4 4.7.2 5.2 1.3 1.5 2.1 3.3 2.1 5.5 0 7.6-4.6 9.3-9 9.8.7.6 1.3 1.8 1.3 3.7v5.5c0 .6.4 1.2 1.4 1C46.3 48.2 52 40.8 52 32c0-11-9-20-20-20z" fill="#fff"/>
</svg>
