<svg viewBox="0 0 400 400" xmlns="http://www.w3.org/2000/svg">
  <!-- Circuito exterior - conexiones principales -->
  
  <!-- Conexiones superiores -->
  <line x1="120" y1="80" x2="120" y2="120" stroke="black" stroke-width="6" fill="none"/>
  <line x1="200" y1="60" x2="200" y2="120" stroke="black" stroke-width="6" fill="none"/>
  <line x1="280" y1="80" x2="280" y2="120" stroke="black" stroke-width="6" fill="none"/>
  
  <!-- Conexiones izquierdas -->
  <line x1="60" y1="120" x2="120" y2="120" stroke="black" stroke-width="6" fill="none"/>
  <line x1="60" y1="200" x2="120" y2="200" stroke="black" stroke-width="6" fill="none"/>
  <line x1="60" y1="280" x2="120" y2="280" stroke="black" stroke-width="6" fill="none"/>
  
  <!-- Conexiones derechas -->
  <line x1="280" y1="120" x2="340" y2="120" stroke="black" stroke-width="6" fill="none"/>
  <line x1="280" y1="200" x2="340" y2="200" stroke="black" stroke-width="6" fill="none"/>
  <line x1="280" y1="280" x2="340" y2="280" stroke="black" stroke-width="6" fill="none"/>
  
  <!-- Conexiones inferiores -->
  <line x1="120" y1="280" x2="120" y2="320" stroke="black" stroke-width="6" fill="none"/>
  <line x1="200" y1="280" x2="200" y2="340" stroke="black" stroke-width="6" fill="none"/>
  <line x1="280" y1="280" x2="280" y2="320" stroke="black" stroke-width="6" fill="none"/>
  
  <!-- Conexiones diagonales -->
  <line x1="120" y1="120" x2="80" y2="80" stroke="black" stroke-width="6" fill="none"/>
  <line x1="280" y1="120" x2="320" y2="80" stroke="black" stroke-width="6" fill="none"/>
  <line x1="120" y1="280" x2="80" y2="320" stroke="black" stroke-width="6" fill="none"/>
  <line x1="280" y1="280" x2="320" y2="320" stroke="black" stroke-width="6" fill="none"/>
  
  <!-- Marco principal -->
  <rect x="120" y="120" width="160" height="160" stroke="black" stroke-width="6" fill="none" rx="8"/>
  
  <!-- Nodos del circuito (círculos en las conexiones) -->
  <!-- Superiores -->
  <circle cx="120" cy="80" r="12" fill="black"/>
  <circle cx="200" cy="60" r="12" fill="black"/>
  <circle cx="280" cy="80" r="12" fill="black"/>
  
  <!-- Izquierdos -->
  <circle cx="60" cy="120" r="12" fill="black"/>
  <circle cx="60" cy="200" r="12" fill="black"/>
  <circle cx="60" cy="280" r="12" fill="black"/>
  
  <!-- Derechos -->
  <circle cx="340" cy="120" r="12" fill="black"/>
  <circle cx="340" cy="200" r="12" fill="black"/>
  <circle cx="340" cy="280" r="12" fill="black"/>
  
  <!-- Inferiores -->
  <circle cx="120" cy="320" r="12" fill="black"/>
  <circle cx="200" cy="340" r="12" fill="black"/>
  <circle cx="280" cy="320" r="12" fill="black"/>
  
  <!-- Diagonales -->
  <circle cx="80" cy="80" r="12" fill="black"/>
  <circle cx="320" cy="80" r="12" fill="black"/>
  <circle cx="80" cy="320" r="12" fill="black"/>
  <circle cx="320" cy="320" r="12" fill="black"/>
  
  <!-- Átomo central -->
  <!-- Núcleo -->
  <circle cx="200" cy="200" r="8" fill="black"/>
  
  <!-- Órbitas electrónicas -->
  <ellipse cx="200" cy="200" rx="45" ry="20" stroke="black" stroke-width="4" fill="none"/>
  <ellipse cx="200" cy="200" rx="45" ry="20" stroke="black" stroke-width="4" fill="none" transform="rotate(60 200 200)"/>
  <ellipse cx="200" cy="200" rx="45" ry="20" stroke="black" stroke-width="4" fill="none" transform="rotate(120 200 200)"/>
  
  <!-- Electrones -->
  <circle cx="245" cy="200" r="6" fill="black"/>
  <circle cx="170" cy="235" r="6" fill="black"/>
  <circle cx="230" cy="165" r="6" fill="black"/>
</svg>