<svg viewBox="0 0 400 400" xmlns="http://www.w3.org/2000/svg">
  <!-- Línea base horizontal -->
  <line x1="60" y1="320" x2="360" y2="320" stroke="black" stroke-width="6"/>
  
  <!-- Barras del gráfico -->
  <g stroke="black" stroke-width="4" fill="white">
    <!-- Barra 1 (más baja) -->
    <rect x="80" y="260" width="35" height="60" rx="2"/>
    
    <!-- Barra 2 (mediana-baja) -->
    <rect x="130" y="220" width="35" height="100" rx="2"/>
    
    <!-- Barra 3 (mediana) -->
    <rect x="180" y="180" width="35" height="140" rx="2"/>
    
    <!-- Barra 4 (mediana-alta) -->
    <rect x="230" y="240" width="35" height="80" rx="2"/>
    
    <!-- Barra 5 (más alta) -->
    <rect x="280" y="140" width="35" height="180" rx="2"/>
  </g>
  
  <!-- Línea de tendencia con puntos -->
  <g stroke="black" stroke-width="4" fill="black">
    <!-- Líneas conectoras -->
    <line x1="120" y1="200" x2="160" y2="160"/>
    <line x1="160" y1="160" x2="200" y2="130"/>
    <line x1="200" y1="130" x2="300" y2="80"/>
    
    <!-- Puntos de datos -->
    <!-- Punto 1 -->
    <circle cx="120" cy="200" r="8" stroke-width="3"/>
    <circle cx="120" cy="200" r="3" fill="white"/>
    
    <!-- Punto 2 -->
    <circle cx="160" cy="160" r="8" stroke-width="3"/>
    <circle cx="160" cy="160" r="3" fill="white"/>
    
    <!-- Punto 3 -->
    <circle cx="200" cy="130" r="8" stroke-width="3"/>
    <circle cx="200" cy="130" r="3" fill="white"/>
    
    <!-- Punto 4 (punto final más alto) -->
    <circle cx="300" cy="80" r="8" stroke-width="3"/>
    <circle cx="300" cy="80" r="3" fill="white"/>
  </g>
  
  <!-- Líneas conectoras adicionales desde las barras a los puntos -->
  <g stroke="black" stroke-width="2" stroke-dasharray="3,3" opacity="0.5">
    <line x1="97" y1="260" x2="120" y2="200"/>
    <line x1="147" y1="220" x2="160" y2="160"/>
    <line x1="197" y1="180" x2="200" y2="130"/>
    <line x1="297" y1="140" x2="300" y2="80"/>
  </g>
</svg>