<svg viewBox="0 0 200 200" xmlns="http://www.w3.org/2000/svg">
  <!-- Contorno principal del cerebro -->
  <path d="M60 50 
           L130 50
           C140 50, 150 55, 155 65
           L165 75
           C170 80, 170 85, 165 90
           L155 100
           C160 105, 160 115, 155 120
           L145 130
           C140 135, 130 135, 125 130
           L115 140
           C110 145, 100 145, 95 140
           L85 150
           C80 155, 70 155, 65 150
           L55 140
           C50 135, 45 125, 45 115
           L40 105
           C35 100, 35 90, 40 85
           L45 75
           C50 65, 55 55, 60 50 Z" 
        fill="none" stroke="#000" stroke-width="3" stroke-linejoin="round"/>
  
  <!-- Circuitos internos -->
  <g fill="none" stroke="#000" stroke-width="3" stroke-linecap="round" stroke-linejoin="round">
    <!-- Líneas de circuito superiores -->
    <path d="M80 65 L110 65 L120 75"/>
    <path d="M90 75 L105 75"/>
    <path d="M125 85 L140 85 L150 95"/>
    
    <!-- Líneas de circuito centrales -->
    <path d="M70 85 L85 85 L95 95"/>
    <path d="M100 105 L125 105"/>
    <path d="M80 105 L70 115"/>
    
    <!-- Líneas de circuito inferiores -->
    <path d="M95 125 L110 125 L120 115"/>
    <path d="M85 135 L100 135"/>
  </g>
  
  <!-- Nodos/conectores externos -->
  <g>
    <!-- Nodo superior izquierdo -->
    <circle cx="30" cy="70" r="6" fill="none" stroke="#000" stroke-width="3"/>
    <line x1="36" y1="70" x2="45" y2="75" stroke="#000" stroke-width="3"/>
    
    <!-- Nodo izquierdo central -->
    <circle cx="20" cy="100" r="6" fill="none" stroke="#000" stroke-width="3"/>
    <line x1="26" y1="100" x2="40" y2="105" stroke="#000" stroke-width="3"/>
    
    <!-- Nodo derecho -->
    <circle cx="175" cy="95" r="6" fill="none" stroke="#000" stroke-width="3"/>
    <line x1="169" y1="95" x2="155" y2="100" stroke="#000" stroke-width="3"/>
    
    <!-- Nodo inferior central -->
    <circle cx="100" cy="175" r="6" fill="none" stroke="#000" stroke-width="3"/>
    <line x1="100" y1="169" x2="100" y2="145" stroke="#000" stroke-width="3"/>
    <line x1="100" y1="145" x2="95" y2="140" stroke="#000" stroke-width="3"/>
    
    <!-- Nodo inferior derecho -->
    <circle cx="130" cy="165" r="6" fill="none" stroke="#000" stroke-width="3"/>
    <line x1="130" y1="159" x2="125" y2="145" stroke="#000" stroke-width="3"/>
    <line x1="125" y1="145" x2="125" y2="130" stroke="#000" stroke-width="3"/>
  </g>
</svg>