<svg xmlns="http://www.w3.org/2000/svg" viewBox="0 0 64 64" width="64" height="64">
  <!-- Círculo de fondo -->
  <circle cx="32" cy="32" r="32" fill="#00697A"/>

  <!-- Rayos de luz -->
  <g stroke="#ffffff" stroke-width="2">
    <line x1="32" y1="6" x2="32" y2="12"/>
    <line x1="32" y1="52" x2="32" y2="58"/>
    <line x1="6" y1="32" x2="12" y2="32"/>
    <line x1="52" y1="32" x2="58" y2="32"/>
    <line x1="15" y1="15" x2="20" y2="20"/>
    <line x1="44" y1="44" x2="49" y2="49"/>
    <line x1="15" y1="49" x2="20" y2="44"/>
    <line x1="44" y1="20" x2="49" y2="15"/>
  </g>

  <!-- Bombilla -->
  <path d="M32 14c-7.2 0-13 5.8-13 13 0 4.8 2.6 9 6.4 11.2V44a1 1 0 001 1h11.2a1 1 0 001-1v-5.8A13 13 0 0045 27c0-7.2-5.8-13-13-13z" fill="#ffffff"/>

  <!-- Base de la bombilla -->
  <rect x="29" y="44" width="6" height="2" fill="#ffffff"/>
  <rect x="29" y="48" width="6" height="2" fill="#ffffff"/>

  <!-- Filamento -->
  <path d="M26 27c0-3.3 2.7-6 6-6s6 2.7 6 6h-2c0-2.2-1.8-4-4-4s-4 1.8-4 4h-2z" fill="#ffffff"/>
</svg>
