<?xml version="1.0" standalone="no"?>
<!DOCTYPE svg PUBLIC "-//W3C//DTD SVG 20010904//EN"
 "http://www.w3.org/TR/2001/REC-SVG-20010904/DTD/svg10.dtd">
<svg version="1.0" xmlns="http://www.w3.org/2000/svg"
 width="1080.000000pt" height="1350.000000pt" viewBox="0 0 1080.000000 1350.000000"
 preserveAspectRatio="xMidYMid meet">

<g transform="translate(0.000000,1350.000000) scale(0.100000,-0.100000)"
fill="#000000" stroke="none">
<path d="M3543 10008 l-373 -220 -1 -532 c-1 -292 -4 -690 -8 -884 l-6 -354
-745 -394 c-410 -216 -753 -398 -763 -404 -16 -9 -17 -42 -17 -465 l0 -455 27
-17 c15 -10 353 -203 752 -429 l726 -410 -4 -876 -4 -876 24 -15 c70 -45 756
-407 771 -407 9 0 351 191 759 425 l742 425 747 -425 c411 -234 755 -425 764
-425 19 0 706 387 718 404 4 6 8 400 8 876 l0 865 737 410 c405 226 745 417
755 425 17 14 18 44 19 469 0 249 -1 454 -3 455 -2 2 -339 200 -749 442 l-746
439 -6 509 c-4 280 -7 664 -7 852 l0 344 -22 13 c-13 8 -189 107 -393 222
-325 182 -373 206 -395 198 -22 -8 -1385 -757 -1436 -788 -19 -12 -84 23 -744
406 -398 230 -730 419 -739 418 -9 0 -184 -99 -388 -221z m1136 -283 c639
-370 707 -407 730 -398 14 5 346 186 736 402 391 216 713 393 717 394 9 2 687
-376 687 -383 0 -3 -318 -190 -707 -416 -603 -350 -707 -414 -710 -435 -3 -22
55 -58 707 -434 391 -225 707 -413 703 -417 -9 -8 -587 -336 -628 -356 l-31
-14 -746 451 -746 452 -731 -450 c-402 -248 -735 -451 -740 -451 -5 0 -139 69
-297 154 -158 84 -301 160 -317 168 l-28 15 738 433 c407 238 747 440 757 450
10 9 15 23 12 32 -3 8 -341 201 -751 428 -409 227 -743 417 -742 422 2 5 147
94 323 198 286 169 322 187 340 176 11 -7 337 -196 724 -421z m-691 -430 c375
-208 681 -383 680 -387 -3 -8 -1431 -847 -1436 -843 -2 1 0 372 4 824 l7 821
31 -18 c17 -10 338 -189 714 -397z m3609 -1033 l-2 -162 -660 381 c-363 209
-671 386 -683 393 -22 12 21 39 655 408 l678 395 7 -626 c4 -344 7 -699 5
-789z m-2226 -1010 l4 -503 -703 -410 c-387 -225 -705 -409 -708 -409 -2 0 -4
377 -4 839 l0 838 698 431 697 430 6 -357 c3 -196 8 -582 10 -859z m774 781
l705 -427 0 -839 c0 -461 -4 -837 -8 -835 -5 2 -319 187 -699 411 l-690 408
-6 347 c-14 722 -20 1362 -13 1362 4 0 324 -192 711 -427z m1467 -1613 l3
-165 30 0 c21 0 233 119 737 413 388 226 709 412 712 412 3 0 6 -177 6 -392
l-1 -393 -711 -395 c-391 -217 -730 -407 -754 -422 l-44 -28 0 -869 0 -869
-307 -174 -308 -175 -5 850 c-4 756 -7 851 -21 860 -12 7 -181 -87 -751 -420
l-735 -430 -6 210 c-4 116 -7 289 -7 386 l0 176 720 414 c396 228 727 419 735
425 14 10 15 114 15 891 l0 880 337 191 338 190 7 -700 c4 -386 9 -775 10
-866z m754 1145 c379 -223 690 -409 692 -413 1 -5 -307 -188 -685 -408 l-688
-400 -6 340 c-7 404 -11 1286 -5 1286 2 0 314 -182 692 -405z m-4824 224 c167
-89 313 -167 325 -175 l23 -14 2 -881 3 -881 730 -414 c402 -228 735 -418 741
-422 14 -9 30 -772 16 -772 -5 0 -334 185 -731 411 -398 225 -730 409 -739
407 -16 -3 -17 -71 -20 -847 -2 -668 -5 -842 -15 -838 -6 3 -160 86 -342 184
l-330 179 0 878 c0 769 -2 879 -15 886 -8 5 -346 197 -750 427 l-735 418 -3
393 c-1 215 0 392 3 392 3 0 330 -201 728 -447 397 -246 733 -449 746 -451 13
-3 27 1 32 9 5 8 9 147 9 310 0 360 12 1409 16 1409 2 0 139 -72 306 -161z
m-387 -656 c-4 -445 -9 -810 -11 -812 -2 -2 -318 191 -704 430 -427 264 -697
436 -691 442 8 8 1401 746 1410 747 2 0 0 -363 -4 -807z m2927 -834 c365 -215
680 -401 701 -414 l38 -22 -692 -398 c-380 -218 -698 -399 -707 -401 -17 -4
-1417 787 -1417 801 0 7 1392 822 1407 824 4 1 306 -175 670 -390z m816 -2533
l-3 -404 -697 396 c-384 219 -698 399 -698 402 0 3 314 188 698 411 l697 407
3 -404 c1 -222 1 -586 0 -808z m-2240 789 c375 -213 682 -391 682 -395 0 -4
-87 -57 -192 -118 -106 -60 -417 -238 -690 -395 l-498 -285 0 794 c0 438 3
793 8 791 4 -2 314 -178 690 -392z"/>
</g>
</svg>
